# xmcd
#
# Track frame offsets: 
#        150
#        13842
#        39522
#        62222
#        89627
#        107679
#        129827
#        172632
#
# Disc length: 2538 seconds
#
# Revision: 3
# Processed by: cddbd v1.5.1PL0 Copyright (c) Steve Scherf et al.
# Submitted via: ExactAudioCopy v0.90b4
#
DISCID=5e09e808
DTITLE=Etta James - Live From San Fransciso
DYEAR=1994
DGENRE=Blues
TTITLE0=I Just Want To Make Love To You
TTITLE1=Take It To The Limit
TTITLE2=Baby What You Want Me To Do
TTITLE3=Sugar On The Floor
TTITLE4=Tell Mama
TTITLE5=I'd Rather Go Blind
TTITLE6=Otis Redding Medley - Hard To Handle, Just One More Day, Can't
TTITLE6=Turn You Loose
TTITLE7=Born Blue
EXTD=010058212522
EXTT0=
EXTT1=
EXTT2=
EXTT3=
EXTT4=
EXTT5=
EXTT6=
EXTT7=
PLAYORDER=
